<svg width="20" height="20" viewBox="0 0 20 20" fill="none" xmlns="http://www.w3.org/2000/svg">
<path d="M4.16671 13.3333C3.28265 13.3333 2.43481 12.9821 1.80968 12.357C1.18456 11.7319 0.833374 10.8841 0.833374 10C0.833374 9.11595 1.18456 8.2681 1.80968 7.64298C2.43481 7.01786 3.28265 6.66667 4.16671 6.66667C4.27721 5.5616 4.82218 4.54569 5.68172 3.84243C6.54127 3.13917 7.64497 2.80616 8.75004 2.91667C9.85511 3.02718 10.871 3.57214 11.5743 4.43168C12.2775 5.29123 12.6105 6.39493 12.5 7.5C13.3841 7.5 14.2319 7.85119 14.8571 8.47631C15.4822 9.10143 15.8334 9.94928 15.8334 10.8333C15.8334 11.7174 15.4822 12.5652 14.8571 13.1904C14.2319 13.8155 13.3841 14.1667 12.5 14.1667L4.16671 13.3333Z" stroke="#C8973F" stroke-width="1.33333"/>
</svg>
