<svg width="30" height="30" viewBox="0 0 30 30" fill="none" xmlns="http://www.w3.org/2000/svg">
<path d="M15 22.5C15 22.5 9.16663 17.9166 9.16663 12.5C9.16663 11.7339 9.31751 10.9754 9.61066 10.2676C9.90381 9.55991 10.3335 8.91684 10.8752 8.37517C11.4168 7.83349 12.0599 7.40381 12.7676 7.11066C13.4754 6.81751 14.2339 6.66663 15 6.66663C15.766 6.66663 16.5245 6.81751 17.2323 7.11066C17.94 7.40381 18.5831 7.83349 19.1247 8.37517C19.6664 8.91684 20.0961 9.55991 20.3893 10.2676C20.6824 10.9754 20.8333 11.7339 20.8333 12.5C20.8333 17.9166 15 22.5 15 22.5Z" stroke="#C8973F" stroke-width="1.33333"/>
<path d="M15 14.5833C16.1506 14.5833 17.0833 13.6506 17.0833 12.5C17.0833 11.3494 16.1506 10.4166 15 10.4166C13.8494 10.4166 12.9166 11.3494 12.9166 12.5C12.9166 13.6506 13.8494 14.5833 15 14.5833Z" stroke="#C8973F" stroke-width="1.33333"/>
</svg>
