<svg width="138" height="20" viewBox="0 0 138 20" fill="none" xmlns="http://www.w3.org/2000/svg">
<path d="M10.3636 15.1533L3.92039 19.8067L6.46016 12.2385L-6.65188e-05 7.56805H7.90902L10.3636 -0.000134468L12.8181 7.56805H20.7272L14.267 12.2385L16.8068 19.8067L10.3636 15.1533ZM39.4651 15.1533L33.022 19.8067L35.5617 12.2385L29.1015 7.56805H37.0106L39.4651 -0.000134468L41.9197 7.56805H49.8288L43.3685 12.2385L45.9083 19.8067L39.4651 15.1533ZM68.5667 15.1533L62.1235 19.8067L64.6633 12.2385L58.2031 7.56805H66.1121L68.5667 -0.000134468L71.0212 7.56805H78.9303L72.4701 12.2385L75.0099 19.8067L68.5667 15.1533ZM97.6683 15.1533L91.2251 19.8067L93.7648 12.2385L87.3046 7.56805H95.2137L97.6683 -0.000134468L100.123 7.56805H108.032L101.572 12.2385L104.111 19.8067L97.6683 15.1533ZM126.77 15.1533L120.327 19.8067L122.866 12.2385L116.406 7.56805H124.315L126.77 -0.000134468L129.224 7.56805H137.133L130.673 12.2385L133.213 19.8067L126.77 15.1533Z" fill="#C8973F"/>
</svg>
