<svg width="20" height="20" viewBox="0 0 20 20" fill="none" xmlns="http://www.w3.org/2000/svg">
<path d="M4.16683 13.3333C3.28277 13.3333 2.43493 12.9821 1.80981 12.357C1.18469 11.7319 0.833496 10.8841 0.833496 10C0.833496 9.11595 1.18469 8.2681 1.80981 7.64298C2.43493 7.01786 3.28277 6.66667 4.16683 6.66667C4.27734 5.5616 4.8223 4.54569 5.68185 3.84243C6.54139 3.13917 7.64509 2.80616 8.75016 2.91667C9.85523 3.02718 10.8711 3.57214 11.5744 4.43168C12.2777 5.29123 12.6107 6.39493 12.5002 7.5C13.3842 7.5 14.2321 7.85119 14.8572 8.47631C15.4823 9.10143 15.8335 9.94928 15.8335 10.8333C15.8335 11.7174 15.4823 12.5652 14.8572 13.1904C14.2321 13.8155 13.3842 14.1667 12.5002 14.1667L4.16683 13.3333Z" stroke="#C8973F" stroke-width="1.33333"/>
</svg>
