<svg width="20" height="20" viewBox="0 0 20 20" fill="none" xmlns="http://www.w3.org/2000/svg">
<path d="M9.99984 17.5C9.99984 17.5 4.1665 12.9167 4.1665 7.50002C4.1665 6.73398 4.31739 5.97543 4.61054 5.2677C4.90369 4.55997 5.33337 3.91691 5.87505 3.37523C6.41672 2.83356 7.05978 2.40388 7.76752 2.11072C8.47525 1.81757 9.23379 1.66669 9.99984 1.66669C10.7659 1.66669 11.5244 1.81757 12.2322 2.11072C12.9399 2.40388 13.583 2.83356 14.1246 3.37523C14.6663 3.91691 15.096 4.55997 15.3891 5.2677C15.6823 5.97543 15.8332 6.73398 15.8332 7.50002C15.8332 12.9167 9.99984 17.5 9.99984 17.5Z" stroke="#C8973F" stroke-width="1.33333"/>
<path d="M9.99984 9.58335C11.1504 9.58335 12.0832 8.65061 12.0832 7.50002C12.0832 6.34943 11.1504 5.41669 9.99984 5.41669C8.84924 5.41669 7.9165 6.34943 7.9165 7.50002C7.9165 8.65061 8.84924 9.58335 9.99984 9.58335Z" stroke="#C8973F" stroke-width="1.33333"/>
</svg>
