<svg width="20" height="20" viewBox="0 0 20 20" fill="none" xmlns="http://www.w3.org/2000/svg">
<path d="M7.5 9.16669C8.88071 9.16669 10 8.0474 10 6.66669C10 5.28598 8.88071 4.16669 7.5 4.16669C6.11929 4.16669 5 5.28598 5 6.66669C5 8.0474 6.11929 9.16669 7.5 9.16669Z" stroke="#C8973F" stroke-width="1.33333"/>
<path d="M14.1668 9.58335C15.3174 9.58335 16.2502 8.65061 16.2502 7.50002C16.2502 6.34943 15.3174 5.41669 14.1668 5.41669C13.0162 5.41669 12.0835 6.34943 12.0835 7.50002C12.0835 8.65061 13.0162 9.58335 14.1668 9.58335Z" stroke="#C8973F" stroke-width="1.33333"/>
<path d="M2.5 15.8334C2.5 13.3334 5 11.6667 7.5 11.6667C10 11.6667 12.5 13.3334 12.5 15.8334M11.6667 15.8334C11.6667 14.1667 13.3333 12.5 15.4167 12.5C17.5 12.5 19.1667 14.1667 19.1667 15.8334" stroke="#C8973F" stroke-width="1.33333"/>
</svg>
