<svg width="32" height="32" viewBox="0 0 32 32" fill="none" xmlns="http://www.w3.org/2000/svg">
<rect width="32" height="32" rx="16" fill="white" fill-opacity="0.95"/>
<path d="M16.0019 20.6591L10.8911 15.5483C10.4834 15.1406 10.2116 14.6667 10.0757 14.1264C9.94315 13.5862 9.94481 13.0492 10.0807 12.5156C10.2166 11.9787 10.4867 11.5114 10.8911 11.1136C11.3054 10.706 11.7777 10.4358 12.308 10.3033C12.8416 10.1674 13.3735 10.1674 13.9039 10.3033C14.4375 10.4392 14.9114 10.7093 15.3257 11.1136L16.0019 11.7699L16.678 11.1136C17.0956 10.7093 17.5696 10.4392 18.0999 10.3033C18.6302 10.1674 19.1605 10.1674 19.6908 10.3033C20.2244 10.4358 20.6984 10.706 21.1127 11.1136C21.517 11.5114 21.7871 11.9787 21.923 12.5156C22.0589 13.0492 22.0589 13.5862 21.923 14.1264C21.7905 14.6667 21.5203 15.1406 21.1127 15.5483L16.0019 20.6591ZM16.0019 19.1129L20.3371 14.7727C20.6022 14.5109 20.7779 14.2043 20.8641 13.853C20.9536 13.5017 20.9552 13.152 20.8691 12.804C20.7829 12.4527 20.6089 12.1494 20.347 11.8942C20.0753 11.6257 19.7654 11.4484 19.4173 11.3622C19.0727 11.2727 18.7263 11.2727 18.3783 11.3622C18.0303 11.4517 17.7171 11.6307 17.4387 11.8991L16.0019 13.2962L14.5651 11.8991C14.29 11.6307 13.9768 11.4517 13.6254 11.3622C13.2774 11.2727 12.9294 11.2727 12.5814 11.3622C12.2367 11.4484 11.9285 11.6257 11.6567 11.8942C11.3949 12.1494 11.2209 12.4527 11.1347 12.804C11.0485 13.152 11.0502 13.5017 11.1396 13.853C11.2291 14.2043 11.4048 14.5109 11.6666 14.7727L16.0019 19.1129Z" fill="#012A47"/>
</svg>
