<svg width="60" height="62" viewBox="0 0 60 62" fill="none" xmlns="http://www.w3.org/2000/svg">
<path d="M55.1015 0.000427506H4.39974C3.82981 -0.00765792 3.26389 0.0990181 2.73432 0.314364C2.20475 0.529709 1.72189 0.849506 1.31333 1.25549C0.904765 1.66147 0.578495 2.14569 0.353152 2.6805C0.127809 3.2153 0.00780698 3.7902 0 4.37238V56.7747C0.00780698 57.3569 0.127809 57.9318 0.353152 58.4666C0.578495 59.0014 0.904765 59.4856 1.31333 59.8916C1.72189 60.2976 2.20475 60.6174 2.73432 60.8327C3.26389 61.048 3.82981 61.1547 4.39974 61.1466H55.1015C55.6714 61.1547 56.2374 61.048 56.7669 60.8327C57.2965 60.6174 57.7794 60.2976 58.1879 59.8916C58.5965 59.4856 58.9228 59.0014 59.1481 58.4666C59.3734 57.9318 59.4935 57.3569 59.5013 56.7747V4.37238C59.4935 3.7902 59.3734 3.2153 59.1481 2.6805C58.9228 2.14569 58.5965 1.66147 58.1879 1.25549C57.7794 0.849506 57.2965 0.529709 56.7669 0.314364C56.2374 0.0990181 55.6714 -0.00765792 55.1015 0.000427506ZM18.0479 51.1798H9.06885V23.664H18.0479V51.1798ZM13.5584 19.8118C12.3201 19.8118 11.1325 19.3093 10.2568 18.4149C9.38119 17.5204 8.88927 16.3073 8.88927 15.0424C8.88927 13.7775 9.38119 12.5644 10.2568 11.6699C11.1325 10.7755 12.3201 10.273 13.5584 10.273C14.2159 10.1968 14.8818 10.2634 15.5125 10.4683C16.1431 10.6732 16.7242 11.0119 17.2178 11.4622C17.7114 11.9124 18.1064 12.4641 18.3768 13.0811C18.6472 13.6981 18.7869 14.3664 18.7869 15.0424C18.7869 15.7184 18.6472 16.3867 18.3768 17.0037C18.1064 17.6207 17.7114 18.1724 17.2178 18.6226C16.7242 19.0729 16.1431 19.4116 15.5125 19.6165C14.8818 19.8214 14.2159 19.888 13.5584 19.8118ZM50.4324 51.1798H41.4533V36.413C41.4533 32.7136 40.1663 30.2984 36.9039 30.2984C35.8943 30.3059 34.9112 30.6294 34.087 31.2253C33.2629 31.8211 32.6374 32.6607 32.2947 33.6308C32.0605 34.3494 31.959 35.1062 31.9954 35.8627V51.1492H23.0163C23.0163 51.1492 23.0163 26.1404 23.0163 23.6334H31.9954V27.5162C32.8111 26.0704 33.9974 24.8794 35.4267 24.0713C36.856 23.2632 38.474 22.8687 40.1065 22.9303C46.0925 22.9303 50.4324 26.8742 50.4324 35.3429V51.1798Z" fill="white"/>
</svg>
