<svg width="84" height="59" viewBox="0 0 84 59" fill="none" xmlns="http://www.w3.org/2000/svg">
<path d="M83.4745 20.5706C83.662 15.1698 82.4748 9.80933 80.0231 4.98705C78.3596 3.00835 76.0509 1.67304 73.4995 1.21379C62.9462 0.261141 52.3492 -0.129319 41.754 0.044084C31.1973 -0.137189 20.6385 0.240671 10.1222 1.17606C8.04309 1.55232 6.11901 2.52252 4.58477 3.96827C1.17127 7.10007 0.791992 12.4581 0.412714 16.986C-0.137571 25.127 -0.137571 33.2957 0.412714 41.4367C0.52244 43.9852 0.903855 46.5149 1.55055 48.9832C2.00786 50.8889 2.9331 52.6521 4.24342 54.1148C5.78809 55.6372 7.75698 56.6626 9.89465 57.058C18.0716 58.0621 26.3106 58.4782 34.5477 58.3031C47.8224 58.4918 59.4662 58.3031 73.234 57.2466C75.4241 56.8755 77.4485 55.8488 79.0369 54.3035C80.0988 53.2467 80.8919 51.9531 81.3505 50.5302C82.7069 46.3895 83.3731 42.0559 83.3228 37.7012C83.4745 35.5881 83.4745 22.8345 83.4745 20.5706ZM33.1823 39.9651V16.6087L55.6355 28.3435C49.3395 31.8149 41.0333 35.7391 33.1823 39.9651Z" fill="white"/>
</svg>
