<svg width="36" height="60" viewBox="0 0 36 60" fill="none" xmlns="http://www.w3.org/2000/svg">
<path d="M34.2491 0.438848C31.325 0.137437 28.386 -0.00904645 25.4455 0.000432069C15.6965 0.000432069 9.63867 6.04709 9.63867 15.7834V22.3927H1.44934C0.649301 22.3922 0.000354254 23.0236 3.25681e-07 23.8029V34.6767C-0.000530422 35.4559 0.647709 36.0879 1.44775 36.0884H9.63867V57.8824C9.63814 58.6617 10.2864 59.2936 11.0864 59.2941H22.6176C23.4177 59.2946 24.0664 58.6632 24.067 57.8839V36.0884H32.231C32.9592 36.0882 33.5745 35.5621 33.669 34.8586L35.1099 23.9865C35.2134 23.2137 34.6541 22.5054 33.8606 22.4046C33.798 22.3967 33.735 22.3927 33.6718 22.3927H24.067V16.8615C24.067 14.1235 24.6331 12.9792 28.1489 12.9792L34.0595 12.9764C34.8595 12.9768 35.5083 12.3455 35.5088 11.5662V1.83957C35.509 1.13094 34.9703 0.531908 34.2491 0.438848ZM32.6101 10.1529L28.1489 10.1557C21.893 10.1557 21.1683 13.9829 21.1683 16.8615V23.8047C21.1679 24.5838 21.816 25.2159 22.616 25.2162H32.0242L30.957 33.2649H22.6176C21.8176 33.2646 21.1688 33.8958 21.1683 34.6751V56.4706H12.5374V34.6767C12.5379 33.8974 11.8896 33.2654 11.0898 33.2649H2.89868V25.2162H11.088C11.8881 25.2168 12.5368 24.5853 12.5374 23.806V15.7834C12.5374 7.66858 17.3636 2.82394 25.4455 2.82394C28.3697 2.82394 31.0108 2.97835 32.6101 3.11346V10.1529Z" fill="white"/>
</svg>
