<svg width="66" height="63" viewBox="0 0 66 63" fill="none" xmlns="http://www.w3.org/2000/svg">
<path d="M50.054 10.7387C49.2796 10.7387 48.5225 10.9572 47.8786 11.3664C47.2347 11.7756 46.7328 12.3573 46.4365 13.0379C46.1401 13.7184 46.0626 14.4673 46.2137 15.1897C46.3647 15.9122 46.7377 16.5758 47.2853 17.0967C47.8329 17.6176 48.5306 17.9723 49.2901 18.116C50.0497 18.2597 50.8369 18.1859 51.5524 17.904C52.2679 17.6221 52.8794 17.1448 53.3097 16.5323C53.7399 15.9198 53.9696 15.1997 53.9696 14.4631C53.9696 13.4754 53.557 12.528 52.8227 11.8296C52.0884 11.1311 51.0925 10.7387 50.054 10.7387ZM65.0637 18.2496C65.0002 15.6745 64.4932 13.1267 63.5627 10.7077C62.733 8.63794 61.4417 6.76378 59.7777 5.21418C58.1619 3.62331 56.1869 2.40279 54.0022 1.64495C51.4657 0.732967 48.7842 0.239635 46.0732 0.18622C42.6144 -1.73431e-07 41.505 0 32.6297 0C23.7544 0 22.645 -1.73431e-07 19.1863 0.18622C16.4752 0.239635 13.7937 0.732967 11.2573 1.64495C9.07653 2.41047 7.10328 3.62994 5.48179 5.21418C3.80928 6.75105 2.52612 8.62958 1.72938 10.7077C0.770586 13.1203 0.251934 15.6709 0.195778 18.2496C-1.82333e-07 21.5395 0 22.5948 0 31.0368C0 39.4788 -1.82333e-07 40.534 0.195778 43.8239C0.251934 46.4026 0.770586 48.9532 1.72938 51.3658C2.52612 53.4439 3.80928 55.3225 5.48179 56.8593C7.10328 58.4436 9.07653 59.6631 11.2573 60.4286C13.7937 61.3406 16.4752 61.8339 19.1863 61.8873C22.645 62.0735 23.7544 62.0735 32.6297 62.0735C41.505 62.0735 42.6144 62.0735 46.0732 61.8873C48.7842 61.8339 51.4657 61.3406 54.0022 60.4286C56.1869 59.6707 58.1619 58.4502 59.7777 56.8593C61.4491 55.3155 62.7415 53.4397 63.5627 51.3658C64.4932 48.9468 65.0002 46.399 65.0637 43.8239C65.0637 40.534 65.2594 39.4788 65.2594 31.0368C65.2594 22.5948 65.2594 21.5395 65.0637 18.2496ZM59.1903 43.4515C59.1666 45.4216 58.7914 47.3736 58.0809 49.2243C57.5599 50.575 56.7231 51.7955 55.6337 52.7935C54.5753 53.8193 53.2949 54.6136 51.8813 55.1213C49.9356 55.7971 47.8834 56.1539 45.8121 56.1765C42.5492 56.3317 41.3419 56.3628 32.7602 56.3628C24.1786 56.3628 22.9713 56.3628 19.7084 56.1765C17.5577 56.2148 15.4162 55.8999 13.3782 55.2454C12.0266 54.7118 10.8049 53.9195 9.78892 52.9177C8.7059 51.9206 7.87957 50.6991 7.37432 49.3485C6.57768 47.4712 6.13584 45.4749 6.06913 43.4515C6.06913 40.3478 5.87335 39.1994 5.87335 31.0368C5.87335 22.8741 5.87335 21.7257 6.06913 18.6221C6.08375 16.6079 6.47031 14.6119 7.21117 12.7251C7.78561 11.415 8.66732 10.2473 9.78892 9.31103C10.7803 8.24389 12.0054 7.39636 13.3782 6.82809C15.3671 6.14541 17.4634 5.7886 19.5778 5.77284C22.8408 5.77284 24.0481 5.58662 32.6297 5.58662C41.2113 5.58662 42.4186 5.58662 45.6816 5.77284C47.7529 5.79543 49.805 6.15225 51.7507 6.82809C53.2335 7.35153 54.5644 8.20254 55.6337 9.31103C56.703 10.2644 57.5385 11.43 58.0809 12.7251C58.8061 14.615 59.1815 16.6102 59.1903 18.6221C59.3535 21.7257 59.3861 22.8741 59.3861 31.0368C59.3861 39.1994 59.3535 40.3478 59.1903 43.4515ZM32.6297 15.1149C29.3204 15.121 26.0873 16.0601 23.3389 17.8133C20.5905 19.5665 18.4501 22.0553 17.1881 24.9652C15.9262 27.8751 15.5994 31.0755 16.2489 34.1619C16.8985 37.2484 18.4953 40.0825 20.8376 42.3061C23.1799 44.5298 26.1625 46.0431 29.4087 46.6549C32.6549 47.2668 36.0189 46.9496 39.0756 45.7436C42.1324 44.5377 44.7447 42.4969 46.5826 39.8792C48.4205 37.2616 49.4014 34.1845 49.4014 31.0368C49.4057 28.9421 48.9746 26.8673 48.1329 24.9317C47.2912 22.9961 46.0554 21.2379 44.4967 19.7582C42.938 18.2785 41.0872 17.1065 39.0506 16.3096C37.014 15.5127 34.8319 15.1067 32.6297 15.1149ZM32.6297 41.372C30.4807 41.372 28.3799 40.7659 26.5931 39.6302C24.8062 38.4946 23.4135 36.8804 22.5911 34.9919C21.7687 33.1034 21.5536 31.0253 21.9728 29.0205C22.3921 27.0156 23.4269 25.1741 24.9465 23.7286C26.4661 22.2832 28.4022 21.2989 30.5099 20.9001C32.6177 20.5013 34.8024 20.706 36.7878 21.4882C38.7733 22.2705 40.4703 23.5952 41.6642 25.2948C42.8582 26.9944 43.4954 28.9926 43.4954 31.0368C43.4954 32.394 43.2144 33.738 42.6683 34.9919C42.1223 36.2458 41.3219 37.3852 40.3129 38.3449C39.304 39.3046 38.1061 40.0659 36.7878 40.5853C35.4696 41.1047 34.0566 41.372 32.6297 41.372Z" fill="white"/>
</svg>
