<svg width="49" height="63" viewBox="0 0 49 63" fill="none" xmlns="http://www.w3.org/2000/svg">
<path d="M48.9446 27.0083V16.0114C44.424 16.0114 40.9741 14.6368 38.7478 11.965C36.4628 8.91573 35.1827 5.05423 35.1279 1.04548V0.25169L26.0018 0V44.6653C25.6888 46.6141 24.8584 48.4065 23.6228 49.8007C22.3872 51.1948 20.8059 52.1234 19.0924 52.4613C17.3788 52.7991 15.6155 52.5299 14.0406 51.6899C12.4656 50.8499 11.1547 49.4797 10.285 47.7641C9.41529 46.0485 9.02855 44.0702 9.177 42.0963C9.32546 40.1224 10.002 38.2479 11.1152 36.7259C12.2284 35.2038 13.7247 34.1076 15.4022 33.5851C17.0796 33.0625 18.8574 33.1389 20.4955 33.8039V23.1555C19.5404 22.9772 18.5743 22.8866 17.6065 22.8844C14.1242 22.8844 10.7202 24.0608 7.82484 26.2648C4.92947 28.4688 2.67281 31.6014 1.34022 35.2664C0.00762819 38.9315 -0.341038 42.9645 0.338311 46.8553C1.01766 50.7461 2.69451 54.3201 5.15682 57.1252C7.61912 59.9303 10.7563 61.8407 14.1716 62.6146C17.5869 63.3885 21.127 62.9913 24.3442 61.4732C27.5613 59.9551 30.3111 57.3842 32.2457 54.0857C34.1803 50.7872 35.2129 46.9093 35.2129 42.9422C35.211 42.1202 35.1656 41.2991 35.077 40.4834V22.7683C39.2267 25.7207 44.0548 27.1969 48.9446 27.0083Z" fill="white"/>
</svg>
